<?xml version="1.0" encoding="UTF-8" standalone="no"?>
<!-- Created with Inkscape (http://www.inkscape.org/) -->

<svg
   version="1.1"
   id="svg1"
   width="149.2002"
   height="116.07272"
   viewBox="0 0 149.2002 116.07272"
   sodipodi:docname="logo estilo atual.jpg"
   xml:space="preserve"
   xmlns:inkscape="http://www.inkscape.org/namespaces/inkscape"
   xmlns:sodipodi="http://sodipodi.sourceforge.net/DTD/sodipodi-0.dtd"
   xmlns="http://www.w3.org/2000/svg"
   xmlns:svg="http://www.w3.org/2000/svg"><defs
     id="defs1" /><sodipodi:namedview
     id="namedview1"
     pagecolor="#ffffff"
     bordercolor="#000000"
     borderopacity="0.25"
     inkscape:showpageshadow="2"
     inkscape:pageopacity="0.0"
     inkscape:pagecheckerboard="0"
     inkscape:deskcolor="#d1d1d1"><inkscape:page
       x="0"
       y="0"
       width="149.2002"
       height="116.07272"
       id="page2"
       margin="0"
       bleed="0" /></sodipodi:namedview><g
     inkscape:groupmode="layer"
     inkscape:label="Image"
     id="g1"
     transform="translate(-0.25945054,-0.53706898)"><path
       style="fill:#000000;stroke-width:1"
       d="m 73.553897,116.53419 c -10.389882,-1.08126 -18.771483,-8.93655 -20.657839,-19.360637 -0.945169,-5.22306 -0.182421,-10.58289 2.257563,-15.86392 0.28919,-0.62591 0.525804,-1.14665 0.525804,-1.15721 0,-0.0108 -0.873324,0.0653 -1.940723,0.16851 -1.067398,0.10324 -3.983974,0.22863 -6.481283,0.27869 -6.380225,0.12788 -9.710854,-0.14387 -17.283419,-1.41013 -8.836247,-1.47756 -11.690604,-1.38088 -23.5398622,0.79733 -4.4013456,0.80908 -4.758731,0.8231 -5.45247591,0.21398 -1.29212305,-1.13449 -0.76951145,-3.10724 0.92419771,-3.48862 2.3500027,-0.52916 9.8855174,-1.78941 12.9180124,-2.16043 2.634667,-0.32234 8.694869,-0.36471 10.975744,-0.0768 0.845861,0.1068 3.251625,0.48104 5.34614,0.83165 6.523715,1.09204 9.784389,1.39134 15.144263,1.39009 3.515678,-9.8e-4 7.008428,-0.22277 10.408608,-0.66144 2.799858,-0.36123 3.449638,-0.26123 4.083109,0.6284 0.62918,0.8836 0.573654,1.27721 -0.460786,3.26626 -1.97263,3.79302 -3.006425,6.58465 -3.494782,9.43725 -0.250649,1.46409 -0.287745,2.14903 -0.222091,4.10115 0.10757,3.19834 0.566322,5.14616 1.878131,7.974407 4.153454,8.95478 14.399797,13.27435 23.759643,10.0164 1.829668,-0.63686 2.758231,-1.10331 4.452812,-2.23679 2.65198,-1.77388 4.847888,-4.33549 6.343016,-7.39933 1.580686,-3.239187 2.126452,-5.916317 1.998333,-9.802417 -0.09194,-2.7889 -0.369289,-4.3808 -1.22372,-7.02383 -0.523224,-1.61848 -1.584818,-4.21052 -2.312108,-5.64537 -0.72153,-1.42347 -0.452751,-2.63178 0.724311,-3.25621 0.585171,-0.31044 0.657019,-0.31463 2.424884,-0.1415 4.473821,0.43813 10.007701,0.35983 15.150581,-0.21437 1.91402,-0.2137 2.79878,-0.33687 7.25024,-1.00928 5.35379,-0.80874 6.44777,-0.88587 12.52316,-0.8829 6.11926,0.003 7.57135,0.096 14.86666,0.95242 3.93298,0.46169 4.11197,0.5123 4.72753,1.33678 0.38613,0.51719 0.39005,1.62364 0.008,2.14285 -0.16033,0.21764 -0.52241,0.52219 -0.80463,0.6768 -0.51225,0.28061 -0.5215,0.28017 -5.40751,-0.25244 -6.34663,-0.69183 -8.03053,-0.82318 -11.92493,-0.93016 -5.00879,-0.13759 -7.8381,0.10087 -16.55107,1.39466 -5.77264,0.85722 -7.19776,0.96458 -12.85248,0.96819 -2.879835,0.002 -5.236165,0.0409 -5.236292,0.0869 -1.24e-4,0.046 0.259338,0.77242 0.576588,1.6143 2.804047,7.44104 2.847977,14.40635 0.131083,20.785177 -3.08793,7.24998 -9.698535,12.44068 -17.437956,13.69244 -1.706851,0.27605 -4.577799,0.37892 -6.114031,0.21904 z m -0.810756,-9.66099 c -5.982669,-1.35497 -10.520956,-6.52681 -11.216495,-12.782347 -0.301017,-2.70729 0.146972,-5.40678 1.408548,-8.48757 0.881609,-2.1529 1.335135,-3.02241 3.087001,-5.91845 2.291804,-3.78862 2.481086,-4.24873 3.077164,-7.48005 1.701801,-9.225388 3.323473,-15.840387 5.636207,-22.990794 5.952497,-18.403652 14.670739,-33.71172 24.761268,-43.4774644 2.275816,-2.202567 5.384146,-4.85713102 5.930736,-5.06494002 0.59883,-0.227677 1.55422,-0.158615 2.05838,0.148787 1.03572,0.63151802 1.22896,2.17463002 0.39423,3.14807102 -3.29301,3.840234 -5.28135,6.4539624 -7.74929,10.1866064 -8.840639,13.371099 -14.807979,29.651647 -16.535217,45.112653 -0.760643,6.808759 -0.598334,11.675561 0.527573,15.818721 0.403821,1.48601 0.957384,2.67123 2.091123,4.47726 4.46088,7.10613 5.360475,13.93975 2.582438,19.617 -1.984776,4.056127 -5.748021,6.912677 -10.244385,7.776187 -1.497578,0.2876 -4.351472,0.24649 -5.809281,-0.0837 z m 4.519536,-3.66913 c 4.303913,-0.62219 7.565509,-3.487217 8.758318,-7.693427 0.269607,-0.95069 0.330778,-1.53846 0.334511,-3.21403 0.0084,-3.75768 -0.847,-6.4458 -3.34858,-10.52334 -2.00508,-3.26825 -2.987398,-5.80343 -3.470652,-8.95713 -0.259911,-1.69614 -0.260789,-8.512052 -0.0015,-11.1317 0.997232,-10.072946 3.887098,-22.269481 7.272412,-30.692908 0.360852,-0.89788 0.653592,-1.675448 0.65054,-1.727931 -0.01898,-0.326403 -4.014718,7.861722 -5.349853,10.96304 -4.091,9.50271 -7.325073,20.814788 -8.849824,30.954689 -0.773513,5.14405 -1.074643,5.99913 -3.595752,10.21054 -2.651984,4.43002 -3.683934,6.87122 -4.1129,9.72953 -0.66962,4.4619 1.513837,8.908197 5.352416,10.899457 2.131054,1.10548 4.215879,1.4933 6.36078,1.18321 z M 13.20323,66.7781 C 10.259071,66.734796 9.9658538,66.667053 9.5656065,65.93725 9.3513956,65.546668 9.3195274,64.82544 9.3032856,60.000043 9.2901107,56.076751 9.2340633,54.381887 9.1073251,54.068022 c -0.2563382,-0.634706 -0.040173,-1.11815 0.6508837,-1.455848 0.5114232,-0.249902 0.9167142,-0.284935 3.3680452,-0.291112 3.480862,-0.0086 4.983643,0.135734 5.363664,0.515755 0.392309,0.39232 0.354998,1.035655 -0.08402,1.448062 -0.360474,0.338648 -0.387548,0.340927 -3.698357,0.310214 l -3.335215,-0.03088 -0.01858,1.824443 -0.01857,1.824432 2.362076,0.06263 c 1.299142,0.03445 2.46849,0.110594 2.598555,0.169211 0.249826,0.112591 0.569101,0.696747 0.569101,1.041238 0,0.112559 -0.15893,0.389416 -0.353184,0.615247 l -0.353174,0.410592 -2.393134,3.13e-4 -2.393124,3.14e-4 -0.04136,1.171756 c -0.02279,0.644468 0.01102,1.534271 0.07494,1.977347 l 0.116285,0.805584 3.154147,0.07322 c 2.655628,0.06166 3.214989,0.113131 3.539059,0.325647 0.487299,0.319577 0.627082,0.754489 0.410517,1.277317 -0.229405,0.55381 -0.721898,0.746887 -1.80454,0.707449 -0.499707,-0.01825 -2.127909,-0.05108 -3.618227,-0.07289 z m 9.373218,-0.102483 c -1.381064,-0.381511 -1.976507,-0.965893 -1.976507,-1.939799 0,-0.54502 0.07322,-0.722978 0.420307,-1.021533 0.554471,-0.476932 1.091518,-0.413293 1.410964,0.167195 0.377371,0.685775 0.785463,0.825925 2.233941,0.767254 0.998534,-0.0405 1.369224,-0.116857 1.675165,-0.34528 0.216084,-0.161327 0.417052,-0.365841 0.446593,-0.454469 0.114561,-0.343674 -0.614129,-0.739072 -2.339804,-1.269599 -1.877455,-0.577191 -2.99629,-1.166346 -3.407883,-1.794519 -0.356452,-0.544015 -0.446646,-1.773104 -0.177394,-2.417497 0.759655,-1.818126 3.433427,-3.033208 5.438923,-2.471709 1.361445,0.381187 2.162437,1.523688 1.844773,2.63132 -0.359426,1.253246 -1.507352,1.440923 -1.74374,0.285096 -0.06335,-0.309708 -0.235169,-0.564707 -0.461402,-0.684739 -0.786108,-0.417093 -2.757358,0.175626 -3.102359,0.932816 -0.266716,0.585386 0.195405,0.894295 2.266214,1.514897 1.008954,0.302364 2.132677,0.724523 2.497162,0.938129 1.892417,1.109024 1.813477,3.443069 -0.157703,4.663076 -1.080023,0.668442 -3.395257,0.905979 -4.86725,0.499361 z m 11.571935,-0.0987 C 32.889909,65.825462 32.66707,65.060389 32.552745,61.098574 l -0.08876,-3.075864 -0.857568,-0.07624 c -0.967795,-0.08607 -1.412714,-0.454113 -1.412714,-1.168765 0,-0.746876 0.429917,-1.074704 1.498618,-1.14276 l 0.951885,-0.06058 0.09399,-1.119338 c 0.163107,-1.942488 0.525867,-2.806243 1.176569,-2.801491 0.787578,0.0054 1.006695,0.626456 0.878453,2.488436 l -0.09775,1.41938 0.56866,0.09395 c 0.312768,0.05162 1.016564,0.09471 1.563992,0.09557 0.860281,0.0011 1.044106,0.05043 1.354847,0.361133 0.436877,0.436877 0.469283,1.084197 0.07834,1.564973 -0.270618,0.332806 -0.345366,0.344135 -1.990937,0.301673 l -1.709756,-0.04406 0.05701,2.827032 c 0.06123,3.036915 0.175373,3.568252 0.800194,3.725076 0.234942,0.05896 0.560078,-0.05551 1.049614,-0.369685 0.842389,-0.540563 1.10298,-0.564548 1.407635,-0.129589 0.380109,0.542676 0.281521,1.078981 -0.32125,1.74751 -0.997671,1.10654 -2.387142,1.450124 -3.405422,0.842092 z m 7.092094,0.139568 c -0.764164,-0.370798 -1.084072,-1.767316 -1.085607,-4.739091 -9.86e-4,-2.071148 0.219235,-4.843515 0.428662,-5.394344 0.418683,-1.101228 1.537474,-1.091509 1.807101,0.01566 0.04467,0.183531 0.01992,1.435838 -0.05508,2.782928 -0.185464,3.332051 -0.07416,4.566888 0.47381,5.256422 0.551127,0.693496 0.548626,1.261248 -0.008,1.817888 -0.449004,0.448994 -0.987279,0.538831 -1.56089,0.260495 z m 5.681035,-0.07678 c -0.641342,-0.316079 -1.15059,-1.225849 -1.338963,-2.392044 -0.32552,-2.015223 -0.08792,-12.893112 0.29927,-13.700615 0.426155,-0.888787 1.340822,-0.947696 1.691287,-0.108919 0.177938,0.425862 0.187303,1.236637 0.06194,5.361385 -0.150232,4.943007 -0.103834,7.254554 0.163186,8.130245 0.147682,0.484308 0.153551,0.487018 0.849495,0.391295 0.623203,-0.08575 0.72692,-0.05907 0.936849,0.240647 0.509564,0.727503 0.136936,1.715048 -0.786562,2.084561 -0.74603,0.298498 -1.261197,0.296705 -1.876504,-0.0065 z m 7.030295,-0.03305 c -2.033353,-0.70233 -3.25235,-2.633728 -3.25235,-5.153085 0,-3.37595 2.114696,-5.699376 5.18964,-5.701881 2.944345,-0.0022 5.008028,2.666621 4.718267,6.102279 -0.131827,1.563094 -0.562835,2.559368 -1.537297,3.553447 -1.373781,1.40142 -3.256064,1.842456 -5.11826,1.19924 z m 3.264609,-2.472681 c 0.920959,-0.646556 1.318008,-1.494382 1.31864,-2.815717 9.86e-4,-1.862348 -0.85602,-3.067203 -2.349139,-3.303001 -2.533454,-0.400096 -4.322234,2.598176 -3.028065,5.0755 0.331922,0.635365 0.556813,0.859083 1.208378,1.20203 0.678299,0.357029 0.912245,0.40853 1.531957,0.337266 0.460938,-0.05302 0.948408,-0.236457 1.318229,-0.496078 z M 92.73868,66.6947 c -0.741645,-0.373109 -0.720178,-0.761769 0.193891,-3.51038 1.788977,-5.379507 3.449634,-9.217053 4.509733,-10.42139 0.778371,-0.884284 1.320316,-0.91707 2.188799,-0.13244 0.730357,0.659825 1.907587,3.005648 2.755777,5.491299 0.32098,0.940644 0.68666,1.909572 0.81262,2.153156 0.12596,0.243585 0.22903,0.563346 0.22903,0.71057 0,0.147224 0.30515,1.221562 0.67813,2.387411 0.37296,1.165842 0.67352,2.316939 0.6679,2.557986 -0.0204,0.876077 -1.09296,1.213711 -1.80589,0.568518 -0.14266,-0.129103 -0.56879,-1.166421 -0.94696,-2.305164 -0.37817,-1.138736 -0.76012,-2.118852 -0.84876,-2.178041 -0.23863,-0.15932 -5.044116,-0.13513 -5.346912,0.02689 -0.164248,0.08791 -0.49481,0.851617 -0.899038,2.077113 -0.807316,2.447497 -1.296561,3.023067 -2.18832,2.57443 z m 7.76042,-7.103856 c 2e-5,-0.02365 -0.23756,-0.682773 -0.527957,-1.464693 -0.527447,-1.420243 -1.361334,-3.10609 -1.536386,-3.10609 -0.162502,0 -1.890297,4.13654 -1.890297,4.525589 0,0.08672 0.774495,0.131889 1.977305,0.115367 1.087515,-0.0149 1.977315,-0.04654 1.977335,-0.07019 z m 9.43101,6.867798 c -1.14726,-0.699576 -1.4826,-1.893805 -1.61818,-5.762888 l -0.0962,-2.746297 h -0.68943 c -0.95966,0 -1.46128,-0.405885 -1.46128,-1.182394 0,-0.859846 0.37562,-1.161119 1.44762,-1.161119 0.93937,0 1.03576,-0.100647 1.04037,-1.08653 0.004,-0.891908 0.32877,-2.26335 0.60616,-2.561092 0.16455,-0.17662 0.46812,-0.307062 0.71462,-0.307062 0.66824,0 0.80203,0.403973 0.75757,2.287411 l -0.0384,1.62831 1.5687,0.06976 c 1.49997,0.06674 1.58427,0.08791 1.92397,0.482785 0.27378,0.318282 0.33526,0.516737 0.26806,0.865148 -0.15776,0.817924 -0.50949,0.964781 -2.3108,0.964781 h -1.60613 l 0.0478,2.826491 c 0.0407,2.40632 0.0864,2.885346 0.30751,3.222336 0.32651,0.497676 0.75459,0.506391 1.45617,0.0297 0.69315,-0.471006 1.20999,-0.473036 1.51603,-0.0065 0.33065,0.50462 0.16311,1.094618 -0.4921,1.733061 -0.99453,0.969089 -2.41588,1.268311 -3.342,0.703583 z m 8.49742,0.12095 c -0.69614,-0.202019 -1.73708,-1.20533 -2.08171,-2.006472 -0.59218,-1.376543 -0.768,-3.717507 -0.46232,-6.155371 0.19899,-1.586895 0.41936,-2.205705 0.91709,-2.57511 0.37838,-0.28082 0.43962,-0.286997 0.8056,-0.08132 l 0.39607,0.222645 v 3.436089 c 0,3.726921 0.0302,3.890214 0.86371,4.668875 0.86391,0.807071 2.64827,0.195356 3.5138,-1.20461 0.42761,-0.691639 0.43098,-0.714738 0.49112,-3.364924 0.0333,-1.467684 0.12803,-2.88729 0.2105,-3.154697 0.24606,-0.797719 1.08806,-0.913745 1.54709,-0.213175 0.1989,0.303574 0.25269,1.122156 0.34278,5.216743 0.11912,5.413851 0.12609,5.369326 -0.83998,5.369326 -0.61602,0 -1.07582,-0.438195 -1.07582,-1.025288 0,-0.241673 -0.039,-0.439405 -0.0866,-0.439405 -0.0476,0 -0.35189,0.227116 -0.67619,0.504696 -0.99632,0.852816 -2.56698,1.1787 -3.86517,0.801952 z m 10.37524,-0.03747 c -2.27865,-0.826401 -2.99868,-4.076112 -1.57269,-7.097938 1.48435,-3.145464 4.97398,-4.740016 7.10547,-3.24677 0.20245,0.141835 0.52866,0.280982 0.72493,0.309221 0.22176,0.03197 0.47054,0.24541 0.65719,0.564005 0.27373,0.467201 0.3014,0.765785 0.31217,3.3688 0.0148,3.56714 0.005,3.458793 0.34387,3.797723 0.24684,0.246845 0.35069,0.2615 0.82376,0.116317 0.49373,-0.151533 0.56546,-0.136306 0.81608,0.173185 0.78741,0.972426 -0.23059,2.291018 -1.67281,2.166731 -0.87022,-0.07495 -1.47207,-0.599231 -1.82332,-1.58818 l -0.24436,-0.688022 -0.91195,0.853086 c -1.39739,1.307177 -3.12883,1.790275 -4.55834,1.271842 z m 2.83218,-2.48146 c 1.14254,-0.592204 2.11798,-2.205978 2.42873,-4.018153 0.16827,-0.98125 0.16102,-1.076779 -0.10421,-1.374315 -1.28463,-1.441313 -3.68287,-0.619393 -4.81898,1.651549 -0.44175,0.882999 -0.51922,1.186249 -0.51922,2.032239 0,0.855483 0.0528,1.057178 0.37831,1.443983 0.6197,0.736467 1.54569,0.829479 2.63533,0.264697 z m 9.43406,2.347411 c -0.6104,-0.414815 -0.99265,-1.148322 -1.17331,-2.251515 -0.16167,-0.987224 -0.16877,-5.564941 -0.0158,-10.169169 0.0926,-2.7835 0.13976,-3.216177 0.39998,-3.661737 0.24595,-0.421111 0.37911,-0.505268 0.79953,-0.505268 0.43388,0 0.54055,0.07387 0.76263,0.527946 0.23927,0.489232 0.24875,0.891952 0.12928,5.492606 -0.0709,2.730573 -0.0855,5.673619 -0.0324,6.540096 0.11263,1.838053 0.26117,2.114909 0.99707,1.858377 0.32952,-0.11487 0.54125,-0.115065 0.75497,-4.97e-4 0.39199,0.209794 0.54229,1.033085 0.2868,1.571021 -0.4222,0.88896 -2.00272,1.214067 -2.90879,0.598335 z M 41.367016,53.438758 c -0.476284,-0.07181 -1.067008,-0.845116 -1.066357,-1.395945 9.86e-4,-0.616942 0.485764,-1.386281 0.946963,-1.502025 0.95696,-0.240183 1.688945,0.371456 1.688945,1.411269 0,1.076044 -0.589536,1.634455 -1.569551,1.486701 z"
       id="path1" /></g></svg>
